# xmcd
#
# Track frame offsets: 
#        150
#        12343
#        21673
#        33373
#        43707
#        60502
#        77110
#        88641
#        100343
#        114387
#        127326
#        137819
#        151738
#        162933
#        178261
#        190559
#        207390
#        217630
#        234196
#        244404
#        259084
#        275904
#        291837
#
# Disc length: 4080 seconds
#
# Revision: 0
# Processed by: cddbd v1.5.2PL0 Copyright (c) Steve Scherf et al.
# Submitted via: ExactAudioCopy v0.99pb5
#
DISCID=4b0fee17
DTITLE=Elvis Presley  - FTD 67-1 - Raised On Rock, CD 1  
DYEAR=1900
DGENRE=
TTITLE0=Raised on Rock
TTITLE1=Are You Sincere
TTITLE2=Find Out What's Happening
TTITLE3=I Miss You
TTITLE4=Girl of Mine
TTITLE5=For Ol' Times Sake
TTITLE6=If You Don't Come Back
TTITLE7=Just a Little Bit
TTITLE8=Sweet Angeline
TTITLE9=Three Corn Patches
TTITLE10=I Miss You (takes 10, 11 composite)
TTITLE11=Find Out What's Happening (take 6)
TTITLE12=It's Diff'rent Now (rehearsal)
TTITLE13=Three Corn Patches (takes 1, 2)
TTITLE14=If You Don't Come Back (take 5)
TTITLE15=Girl Of Mine (take 9)
TTITLE16=I Miss You (take 5)
TTITLE17=Three Corn Patches (takes 13, 14)
TTITLE18=Are You Sincere (take 2)
TTITLE19=Find Out What's Happening (takes 8, 7 composite)
TTITLE20=For Ol' Times Sake (take 4)
TTITLE21=Color My Rainbow
TTITLE22=Sweet Angeline
EXTD=
EXTT0=
EXTT1=
EXTT2=
EXTT3=
EXTT4=
EXTT5=
EXTT6=
EXTT7=
EXTT8=
EXTT9=
EXTT10=
EXTT11=
EXTT12=
EXTT13=
EXTT14=
EXTT15=
EXTT16=
EXTT17=
EXTT18=
EXTT19=
EXTT20=
EXTT21=
EXTT22=
PLAYORDER=
